<svg xmlns="http://www.w3.org/2000/svg" width="92" height="62" viewBox="0 0 92 62">
<defs><linearGradient id="leaf" x1=".1" y1="0" x2=".9" y2="1"><stop stop-color="#76a05b"/><stop offset=".55" stop-color="#56834e"/><stop offset="1" stop-color="#3f7046"/></linearGradient></defs>
<ellipse cx="45" cy="54" rx="34" ry="5.5" fill="#345039" opacity=".15"/>
<path d="M10 47C0 35 8 21 22 22 24 7 42 5 50 18c11-10 27-1 25 12 12 4 12 20-1 24-10 5-20 2-27 0-10 7-22 6-29 0-8 1-13-2-8-7z" fill="url(#leaf)" stroke="#345f3d" stroke-width="2.2" stroke-linejoin="round"/>
<g fill="#8fb36d" opacity=".82"><ellipse cx="27" cy="31" rx="10" ry="7"/><ellipse cx="47" cy="23" rx="11" ry="7.5"/><ellipse cx="66" cy="36" rx="10" ry="7"/><ellipse cx="38" cy="43" rx="12" ry="7.5"/></g>
<g fill="#386b43" opacity=".6"><ellipse cx="20" cy="42" rx="7" ry="5"/><ellipse cx="58" cy="48" rx="9" ry="5.5"/><ellipse cx="75" cy="44" rx="6" ry="4.5"/></g>
<g fill="#d4d77c" opacity=".84"><circle cx="21" cy="34" r="2"/><circle cx="50" cy="29" r="2"/><circle cx="67" cy="42" r="2"/><circle cx="35" cy="48" r="1.6"/></g>
<path d="M15 51c10-4 16-3 23 1m11 1c8-4 17-3 28-1" fill="none" stroke="#416f43" stroke-width="2" opacity=".5" stroke-linecap="round"/>
</svg>