<svg xmlns="http://www.w3.org/2000/svg" width="190" height="100" viewBox="0 0 190 100" shape-rendering="crispEdges"><rect width="190" height="100" fill="none"/><ellipse cx="95" cy="90" rx="82" ry="6" fill="#30482c" opacity=".16"/><g fill="#72553a"><rect x="14" y="28" width="8" height="62"/><rect x="58" y="20" width="8" height="70"/><rect x="124" y="24" width="8" height="66"/><rect x="169" y="32" width="8" height="58"/></g><g fill="#c89b59"><rect x="10" y="30" width="16" height="7"/><rect x="54" y="22" width="16" height="7"/><rect x="120" y="26" width="16" height="7"/><rect x="165" y="34" width="16" height="7"/></g><path d="M20 49 L62 39 L128 44 L173 53" fill="none" stroke="#b9874f" stroke-width="5"/><path d="M22 69 L64 59 L126 63 L171 72" fill="none" stroke="#8d673f" stroke-width="4"/><g fill="#e9d9a4"><rect x="38" y="46" width="9" height="5"/><rect x="91" y="40" width="9" height="5"/><rect x="145" y="47" width="9" height="5"/></g></svg>