<svg xmlns="http://www.w3.org/2000/svg" width="164" height="58" viewBox="0 0 164 58"><defs><linearGradient id="w" x1="0" y1="0" x2="1" y2="1"><stop stop-color="#aa7d50"/><stop offset="1" stop-color="#704d35"/></linearGradient><filter id="s"><feGaussianBlur stdDeviation="1.2"/></filter></defs><ellipse cx="82" cy="54" rx="70" ry="3.5" fill="#314b38" opacity=".1" filter="url(#s)"/><path d="M5 43Q57 34 159 13" stroke="#6c4b33" stroke-width="9" stroke-linecap="round"/><path d="M5 29Q63 23 159 6" stroke="url(#w)" stroke-width="8" stroke-linecap="round"/><g fill="url(#w)" stroke="#5a3e2d" stroke-width="1.8"><path d="M18 5q6-2 12 0l-1 49-13 3z"/><path d="M76 1q6-2 12 0l-1 47-13 3z"/><path d="M136 1q6-2 12 0l-1 42-13 3z"/></g><g fill="none" stroke="#d0a16d" stroke-width="2" stroke-linecap="round" opacity=".62"><path d="M21 11l7-2"/><path d="M79 8l7-2"/><path d="M139 8l7-2"/></g><g fill="#6e8658"><ellipse cx="16" cy="52" rx="9" ry="3"/><ellipse cx="147" cy="45" rx="9" ry="3"/></g></svg>