<svg xmlns="http://www.w3.org/2000/svg" width="58" height="78" viewBox="0 0 58 78" shape-rendering="crispEdges"><rect width="58" height="78" fill="none"/><ellipse cx="27" cy="71" rx="17" ry="5" fill="#30482c" opacity=".25"/><rect x="15" y="62" width="11" height="6" fill="#3f3933"/><rect x="28" y="62" width="11" height="6" fill="#3f3933"/><rect x="17" y="47" width="9" height="17" fill="#294f79"/><rect x="28" y="47" width="9" height="17" fill="#315f8c"/><rect x="14" y="30" width="26" height="21" fill="#355f99"/><rect x="18" y="31" width="18" height="17" fill="#4a75b2"/><rect x="11" y="34" width="5" height="15" fill="#ddb07d"/><rect x="38" y="34" width="5" height="15" fill="#ddb07d"/><rect x="19" y="23" width="15" height="8" fill="#d5a674"/><rect x="16" y="8" width="21" height="19" fill="#e9bb84"/><rect x="14" y="6" width="24" height="7" fill="#d9d1c0"/><rect x="14" y="11" width="5" height="8" fill="#c4bdaf"/><rect x="33" y="14" width="3" height="3" fill="#37312d"/><rect x="29" y="21" width="7" height="3" fill="#b98768"/><rect x="20" y="35" width="4" height="4" fill="#d9e5ed"/><rect x="46" y="38" width="4" height="33" fill="#67472f"/><rect x="43" y="37" width="9" height="4" fill="#7f5837"/><rect x="48" y="68" width="7" height="4" fill="#67472f"/></svg>