<svg xmlns="http://www.w3.org/2000/svg" width="64" height="94" viewBox="0 0 64 94"><defs><linearGradient id="blue" x1="0" y1="0" x2="1" y2="1"><stop stop-color="#6389a2"/><stop offset=".55" stop-color="#466b84"/><stop offset="1" stop-color="#34556d"/></linearGradient><linearGradient id="skin" x1="0" y1="0" x2=".8" y2="1"><stop stop-color="#dda077"/><stop offset="1" stop-color="#bd7858"/></linearGradient><linearGradient id="beard" x1="0" y1="0" x2="0" y2="1"><stop stop-color="#f5f0df"/><stop offset="1" stop-color="#cbc6b9"/></linearGradient></defs><ellipse cx="31" cy="88" rx="20" ry="4.5" fill="#314936" opacity=".16"/><path d="M20 39c3-9 21-10 24 1l4 28-10 3-2 16H25l-2-16-9-3z" fill="url(#blue)" stroke="#564235" stroke-width="2" stroke-linejoin="round"/><path d="M26 43v22h13V43" fill="#537b95" opacity=".7"/><path d="M25 46h15M29 52v10M37 52v10" fill="none" stroke="#84a5b8" stroke-width="1.4" opacity=".62" stroke-linecap="round"/><circle cx="32" cy="24" r="13.5" fill="url(#skin)" stroke="#564235" stroke-width="2"/><path d="M16 20c2-13 27-18 32-3-8-4-17-5-25-1l-7 4z" fill="#486f8e" stroke="#4a3c35" stroke-width="1.7"/><path d="M17 19c4-5 13-8 22-6" fill="none" stroke="#7898aa" stroke-width="2" stroke-linecap="round" opacity=".7"/><path d="M20 25c1 7 3 13 8 17 5 4 12 1 16-4 2-3 3-7 3-12-3 6-8 8-14 8-6 0-10-3-13-9z" fill="url(#beard)" stroke="#8a8278" stroke-width="1.5" stroke-linejoin="round"/><path d="M25 25q3-3 6 0m3 0q3-3 6 0" fill="none" stroke="#6a4a3b" stroke-width="1.2" stroke-linecap="round"/><circle cx="28" cy="25" r=".9" fill="#463830"/><circle cx="37" cy="25" r=".9" fill="#463830"/><path d="M29 30q3 2 6 0" fill="none" stroke="#a56155" stroke-width="1" stroke-linecap="round"/><path d="M17 54l-7 25" stroke="#c78a66" stroke-width="5" stroke-linecap="round"/><path d="M50 53l4 31" stroke="#704d34" stroke-width="3.7" stroke-linecap="round"/><circle cx="54" cy="84" r="3.6" fill="#58402d"/><path d="M24 87h-9M38 87h9" stroke="#443b35" stroke-width="6" stroke-linecap="round"/><path d="M18 57l-3 10M46 56l2 11" stroke="#33536b" stroke-width="2" opacity=".6"/></svg>