<svg xmlns="http://www.w3.org/2000/svg" width="58" height="78" viewBox="0 0 58 78" shape-rendering="crispEdges"><rect width="58" height="78" fill="none"/><ellipse cx="30" cy="71" rx="20" ry="6" fill="#233829" opacity=".36"/><ellipse cx="34" cy="70" rx="13" ry="3" fill="#18281f" opacity=".2"/><rect x="14" y="63" width="12" height="5" fill="#2d2b29"/><rect x="12" y="66" width="14" height="3" fill="#1e1e1d"/><rect x="30" y="62" width="11" height="5" fill="#35312e"/><rect x="30" y="65" width="13" height="3" fill="#1e1e1d"/><rect x="17" y="47" width="9" height="17" fill="#23466d"/><rect x="26" y="47" width="3" height="16" fill="#1d3859"/><rect x="30" y="46" width="9" height="17" fill="#315f8c"/><rect x="14" y="31" width="27" height="20" fill="#284d7c"/><rect x="18" y="30" width="19" height="19" fill="#4777b0"/><rect x="21" y="32" width="13" height="15" fill="#5687c0"/><rect x="19" y="35" width="5" height="6" fill="#d8e5ed"/><rect x="20" y="36" width="3" height="3" fill="#f3f7f4"/><rect x="13" y="49" width="27" height="3" fill="#1d3d67"/><rect x="10" y="35" width="6" height="14" fill="#c38d61"/><rect x="11" y="36" width="4" height="11" fill="#e0ac77"/><rect x="39" y="33" width="5" height="15" fill="#bf865c"/><rect x="39" y="34" width="3" height="12" fill="#dda570"/><rect x="19" y="23" width="16" height="8" fill="#c18b62"/><rect x="21" y="23" width="12" height="7" fill="#dfa875"/><rect x="15" y="9" width="23" height="17" fill="#d6a170"/><rect x="17" y="8" width="20" height="17" fill="#e9b57e"/><rect x="14" y="6" width="24" height="7" fill="#b9b4aa"/><rect x="13" y="9" width="7" height="12" fill="#aaa69f"/><rect x="18" y="5" width="17" height="4" fill="#ded8cb"/><rect x="34" y="13" width="3" height="4" fill="#9e9991"/><rect x="33" y="15" width="3" height="2" fill="#2b2927"/><rect x="22" y="15" width="2" height="2" fill="#3b322d"/><rect x="29" y="21" width="8" height="3" fill="#aa725b"/><rect x="31" y="22" width="5" height="2" fill="#d18d6e"/><rect x="46" y="38" width="5" height="34" fill="#523822"/><rect x="47" y="39" width="3" height="31" fill="#795234"/><rect x="43" y="37" width="10" height="4" fill="#8b603b"/><rect x="48" y="69" width="8" height="4" fill="#523822"/><rect x="50" y="69" width="5" height="2" fill="#8b603b"/></svg>