<svg xmlns="http://www.w3.org/2000/svg" width="270" height="205" viewBox="0 0 270 205"><defs><linearGradient id="dirt" x1=".1" y1="1" x2=".9" y2="0"><stop stop-color="#9d7959"/><stop offset=".5" stop-color="#ba956c"/><stop offset="1" stop-color="#d0b187"/></linearGradient><filter id="s"><feGaussianBlur stdDeviation="4"/></filter></defs><path d="M-15 137c73-10 122-25 145-53 18-23 24-53 31-99h98c-8 72-22 124-58 160-40 41-105 61-216 65z" fill="#5e804f" opacity=".16" filter="url(#s)"/><path d="M-8 142c75-9 125-25 148-54 19-24 25-54 31-98h78c-7 66-20 114-53 149-36 38-98 58-204 62z" fill="url(#dirt)"/><path d="M1 152c67-10 117-26 140-54 24-29 30-57 36-102" fill="none" stroke="#ead0a5" stroke-width="9" stroke-linecap="round" opacity=".48"/><path d="M2 183c84-8 136-30 161-59 26-31 32-66 38-124" fill="none" stroke="#7d604b" stroke-width="3" opacity=".28"/><g fill="#725d49" opacity=".32"><ellipse cx="62" cy="153" rx="5" ry="2"/><ellipse cx="126" cy="128" rx="4" ry="2"/><ellipse cx="190" cy="72" rx="5" ry="2"/></g><g fill="none" stroke="#5d8050" stroke-width="2.2" stroke-linecap="round" opacity=".58"><path d="M20 141l4-10m1 10 6-7M77 131l3-8m1 8 6-6M163 63l5-11m0 11 7-8M193 24l4-10m1 10 7-7M26 190l4 9m1-9 6 7M100 170l3 9m1-9 6 7M170 120l5 9m0-9 7 7"/></g><g fill="#dbc779" opacity=".68"><circle cx="34" cy="137" r="2"/><circle cx="209" cy="43" r="1.9"/></g></svg>