<svg xmlns="http://www.w3.org/2000/svg" width="220" height="160" viewBox="0 0 220 160" shape-rendering="crispEdges"><rect width="220" height="160" fill="none"/><path d="M0 30c42-7 78-3 111 16 36 21 62 48 109 55v51c-54-7-89-31-121-53-30-21-57-28-99-19z" fill="#6f9857"/><path d="M0 40c39-7 73-3 104 15 35 20 60 46 116 57v34c-50-7-82-28-115-51-31-22-59-27-105-18z" fill="#b28c5b"/><path d="M0 49c35-6 67-2 97 15 34 19 57 43 123 55v19c-47-6-77-26-110-49-31-21-61-24-110-16z" fill="#caa873"/><g fill="#ddc28d"><rect x="18" y="51" width="25" height="5"/><rect x="58" y="59" width="23" height="5"/><rect x="95" y="72" width="27" height="5"/><rect x="132" y="91" width="31" height="5"/><rect x="174" y="111" width="26" height="5"/></g><g fill="#927149"><rect x="44" y="58" width="9" height="5"/><rect x="86" y="69" width="10" height="6"/><rect x="124" y="87" width="9" height="5"/><rect x="166" y="106" width="10" height="5"/></g><g fill="#557f49"><rect x="2" y="31" width="5" height="11"/><rect x="31" y="28" width="4" height="9"/><rect x="204" y="132" width="5" height="10"/></g><g fill="#8db86f"><rect x="14" y="35" width="8" height="4"/><rect x="191" y="123" width="8" height="4"/></g></svg>