<svg xmlns="http://www.w3.org/2000/svg" width="100" height="118" viewBox="0 0 100 118" shape-rendering="crispEdges"><rect width="100" height="118" fill="none"/><ellipse cx="47" cy="111" rx="24" ry="5" fill="#405238" opacity=".22"/><rect x="43" y="22" width="10" height="87" fill="#5a402e"/><rect x="47" y="22" width="4" height="87" fill="#8c6746"/><rect x="44" y="29" width="2" height="66" fill="#aa7b50"/><path d="M12 28h68l10 9-10 9H12z" fill="#765036"/><path d="M18 52h64l-9 9 9 9H18z" fill="#69482f"/><path d="M10 76h69l10 9-10 9H10z" fill="#7d5638"/><g fill="#9d7248"><rect x="15" y="31" width="58" height="3"/><rect x="22" y="55" width="52" height="3"/><rect x="14" y="79" width="58" height="3"/></g><g fill="#d8c49a"><rect x="22" y="35" width="38" height="4"/><rect x="32" y="59" width="36" height="4"/><rect x="20" y="83" width="42" height="4"/></g><g fill="#4c392b"><rect x="73" y="33" width="5" height="3"/><rect x="24" y="42" width="8" height="2"/><rect x="66" y="57" width="6" height="3"/><rect x="27" y="68" width="7" height="2"/><rect x="69" y="81" width="6" height="3"/><rect x="18" y="91" width="9" height="2"/></g><g fill="#6f7e4f"><rect x="42" y="101" width="4" height="6"/><rect x="51" y="103" width="4" height="5"/></g></svg>